<mxfile host="Electron" modified="2023-04-07T00:05:02.702Z" agent="Mozilla/5.0 (Macintosh; Intel Mac OS X 10_15_7) AppleWebKit/537.36 (KHTML, like Gecko) draw.io/21.1.2 Chrome/106.0.5249.199 Electron/21.4.3 Safari/537.36" etag="91vorEvEzK4c87nMowvU" version="21.1.2" type="device">
  <diagram id="jHYS1GxRkwbcLdCwjRc8" name="Page-1">
    <mxGraphModel dx="1045" dy="1120" grid="1" gridSize="10" guides="1" tooltips="1" connect="1" arrows="1" fold="1" page="1" pageScale="1" pageWidth="827" pageHeight="1169" math="0" shadow="0">
      <root>
        <mxCell id="0" />
        <mxCell id="1" parent="0" />
        <mxCell id="Mu6_Yp2KzFKUIn4I_CKU-4" value="Concrete class" style="rounded=1;whiteSpace=wrap;html=1;fillColor=#d5e8d4;strokeColor=#82b366;fontColor=#006600;fontSize=11;" parent="1" vertex="1">
          <mxGeometry x="40" y="40" width="120" height="40" as="geometry" />
        </mxCell>
        <mxCell id="Mu6_Yp2KzFKUIn4I_CKU-5" value="Abstract class" style="rounded=1;whiteSpace=wrap;html=1;fillColor=#dae8fc;strokeColor=#6c8ebf;fontColor=#000099;fontSize=11;" parent="1" vertex="1">
          <mxGeometry x="40" y="100" width="120" height="40" as="geometry" />
        </mxCell>
        <mxCell id="Mu6_Yp2KzFKUIn4I_CKU-6" value="Class template" style="shape=ext;double=1;rounded=1;whiteSpace=wrap;html=1;fillColor=#f5f5f5;fontColor=#808080;strokeColor=#666666;fontSize=11;" parent="1" vertex="1">
          <mxGeometry x="40" y="160" width="120" height="40" as="geometry" />
        </mxCell>
        <mxCell id="Mu6_Yp2KzFKUIn4I_CKU-48" style="rounded=0;orthogonalLoop=1;jettySize=auto;html=1;fontFamily=Helvetica;fontSize=11;fontColor=#000099;exitX=0;exitY=0.5;exitDx=0;exitDy=0;strokeColor=#B3B3B3;" parent="1" source="Mu6_Yp2KzFKUIn4I_CKU-7" target="Mu6_Yp2KzFKUIn4I_CKU-3" edge="1">
          <mxGeometry relative="1" as="geometry">
            <mxPoint x="170" y="130" as="sourcePoint" />
          </mxGeometry>
        </mxCell>
        <mxCell id="Mu6_Yp2KzFKUIn4I_CKU-32" style="rounded=0;orthogonalLoop=1;jettySize=auto;html=1;fontFamily=Helvetica;fontSize=11;fontColor=#000099;exitX=0;exitY=0.5;exitDx=0;exitDy=0;strokeColor=#B3B3B3;" parent="1" source="Mu6_Yp2KzFKUIn4I_CKU-8" target="Mu6_Yp2KzFKUIn4I_CKU-3" edge="1">
          <mxGeometry relative="1" as="geometry" />
        </mxCell>
        <mxCell id="Mu6_Yp2KzFKUIn4I_CKU-46" style="rounded=0;orthogonalLoop=1;jettySize=auto;html=1;fontFamily=Helvetica;fontSize=11;fontColor=#000099;strokeColor=#B3B3B3;exitX=0;exitY=0.5;exitDx=0;exitDy=0;" parent="1" source="Mu6_Yp2KzFKUIn4I_CKU-10" target="Mu6_Yp2KzFKUIn4I_CKU-11" edge="1">
          <mxGeometry relative="1" as="geometry">
            <mxPoint x="280" y="750" as="sourcePoint" />
            <mxPoint x="300" y="640" as="targetPoint" />
          </mxGeometry>
        </mxCell>
        <mxCell id="Mu6_Yp2KzFKUIn4I_CKU-30" style="rounded=0;orthogonalLoop=1;jettySize=auto;html=1;fontFamily=Helvetica;fontSize=11;fontColor=#000099;exitX=0;exitY=0.5;exitDx=0;exitDy=0;strokeColor=#B3B3B3;" parent="1" source="Mu6_Yp2KzFKUIn4I_CKU-11" target="Mu6_Yp2KzFKUIn4I_CKU-3" edge="1">
          <mxGeometry relative="1" as="geometry" />
        </mxCell>
        <mxCell id="Mu6_Yp2KzFKUIn4I_CKU-43" style="rounded=0;orthogonalLoop=1;jettySize=auto;html=1;fontFamily=Helvetica;fontSize=11;fontColor=#000099;exitX=0;exitY=0.5;exitDx=0;exitDy=0;strokeColor=#B3B3B3;" parent="1" source="Mu6_Yp2KzFKUIn4I_CKU-12" target="Mu6_Yp2KzFKUIn4I_CKU-11" edge="1">
          <mxGeometry relative="1" as="geometry" />
        </mxCell>
        <mxCell id="Mu6_Yp2KzFKUIn4I_CKU-44" style="rounded=0;orthogonalLoop=1;jettySize=auto;html=1;fontFamily=Helvetica;fontSize=11;fontColor=#000099;exitX=0;exitY=0.5;exitDx=0;exitDy=0;strokeColor=#B3B3B3;" parent="1" source="Mu6_Yp2KzFKUIn4I_CKU-13" target="Mu6_Yp2KzFKUIn4I_CKU-11" edge="1">
          <mxGeometry relative="1" as="geometry">
            <mxPoint x="390" y="660" as="targetPoint" />
          </mxGeometry>
        </mxCell>
        <mxCell id="Mu6_Yp2KzFKUIn4I_CKU-45" style="rounded=0;orthogonalLoop=1;jettySize=auto;html=1;fontFamily=Helvetica;fontSize=11;fontColor=#000099;exitX=0;exitY=0.5;exitDx=0;exitDy=0;strokeColor=#B3B3B3;" parent="1" source="Mu6_Yp2KzFKUIn4I_CKU-14" target="Mu6_Yp2KzFKUIn4I_CKU-11" edge="1">
          <mxGeometry relative="1" as="geometry" />
        </mxCell>
        <mxCell id="lLcRuhPojJY8X0RwrxiA-1" style="edgeStyle=none;rounded=0;orthogonalLoop=1;jettySize=auto;html=1;strokeColor=#B3B3B3;exitX=0;exitY=0.5;exitDx=0;exitDy=0;" edge="1" parent="1" source="Mu6_Yp2KzFKUIn4I_CKU-15" target="Mu6_Yp2KzFKUIn4I_CKU-7">
          <mxGeometry relative="1" as="geometry" />
        </mxCell>
        <mxCell id="lLcRuhPojJY8X0RwrxiA-2" style="edgeStyle=none;rounded=0;orthogonalLoop=1;jettySize=auto;html=1;strokeColor=#B3B3B3;exitX=0;exitY=0.5;exitDx=0;exitDy=0;" edge="1" parent="1" source="Mu6_Yp2KzFKUIn4I_CKU-16" target="Mu6_Yp2KzFKUIn4I_CKU-7">
          <mxGeometry relative="1" as="geometry" />
        </mxCell>
        <mxCell id="lLcRuhPojJY8X0RwrxiA-3" style="edgeStyle=none;rounded=0;orthogonalLoop=1;jettySize=auto;html=1;strokeColor=#B3B3B3;" edge="1" parent="1" source="Mu6_Yp2KzFKUIn4I_CKU-17" target="Mu6_Yp2KzFKUIn4I_CKU-7">
          <mxGeometry relative="1" as="geometry" />
        </mxCell>
        <mxCell id="Mu6_Yp2KzFKUIn4I_CKU-38" style="rounded=0;orthogonalLoop=1;jettySize=auto;html=1;fontFamily=Helvetica;fontSize=11;fontColor=#000099;exitX=0;exitY=0.5;exitDx=0;exitDy=0;strokeColor=#B3B3B3;" parent="1" source="Mu6_Yp2KzFKUIn4I_CKU-18" target="Mu6_Yp2KzFKUIn4I_CKU-8" edge="1">
          <mxGeometry relative="1" as="geometry" />
        </mxCell>
        <mxCell id="lLcRuhPojJY8X0RwrxiA-6" style="edgeStyle=none;rounded=0;orthogonalLoop=1;jettySize=auto;html=1;strokeColor=#B3B3B3;exitX=0;exitY=0.5;exitDx=0;exitDy=0;" edge="1" parent="1" source="Mu6_Yp2KzFKUIn4I_CKU-19" target="Mu6_Yp2KzFKUIn4I_CKU-7">
          <mxGeometry relative="1" as="geometry" />
        </mxCell>
        <mxCell id="lLcRuhPojJY8X0RwrxiA-4" style="edgeStyle=none;rounded=0;orthogonalLoop=1;jettySize=auto;html=1;strokeColor=#B3B3B3;exitX=0;exitY=0.5;exitDx=0;exitDy=0;" edge="1" parent="1" source="Mu6_Yp2KzFKUIn4I_CKU-20" target="Mu6_Yp2KzFKUIn4I_CKU-7">
          <mxGeometry relative="1" as="geometry" />
        </mxCell>
        <mxCell id="Mu6_Yp2KzFKUIn4I_CKU-40" style="rounded=0;orthogonalLoop=1;jettySize=auto;html=1;fontFamily=Helvetica;fontSize=11;fontColor=#000099;exitX=0;exitY=0.5;exitDx=0;exitDy=0;strokeColor=#B3B3B3;" parent="1" source="Mu6_Yp2KzFKUIn4I_CKU-21" target="Mu6_Yp2KzFKUIn4I_CKU-8" edge="1">
          <mxGeometry relative="1" as="geometry">
            <mxPoint x="390" y="450" as="targetPoint" />
          </mxGeometry>
        </mxCell>
        <mxCell id="Mu6_Yp2KzFKUIn4I_CKU-41" style="rounded=0;orthogonalLoop=1;jettySize=auto;html=1;fontFamily=Helvetica;fontSize=11;fontColor=#000099;exitX=0;exitY=0.5;exitDx=0;exitDy=0;strokeColor=#B3B3B3;" parent="1" source="Mu6_Yp2KzFKUIn4I_CKU-22" target="Mu6_Yp2KzFKUIn4I_CKU-8" edge="1">
          <mxGeometry relative="1" as="geometry" />
        </mxCell>
        <mxCell id="Mu6_Yp2KzFKUIn4I_CKU-42" style="rounded=0;orthogonalLoop=1;jettySize=auto;html=1;fontFamily=Helvetica;fontSize=11;fontColor=#000099;exitX=0;exitY=0.5;exitDx=0;exitDy=0;strokeColor=#B3B3B3;" parent="1" source="Mu6_Yp2KzFKUIn4I_CKU-23" target="Mu6_Yp2KzFKUIn4I_CKU-8" edge="1">
          <mxGeometry relative="1" as="geometry" />
        </mxCell>
        <mxCell id="Mu6_Yp2KzFKUIn4I_CKU-1" value="Map Projection" style="rounded=1;whiteSpace=wrap;html=1;fontFamily=Helvetica;fillColor=#dae8fc;strokeColor=#6c8ebf;fontColor=#000099;fontSize=11;" parent="1" vertex="1">
          <mxGeometry x="40" y="430" width="120" height="40" as="geometry" />
        </mxCell>
        <mxCell id="Mu6_Yp2KzFKUIn4I_CKU-3" value="Basic Map Projection" style="shape=ext;double=1;rounded=1;whiteSpace=wrap;html=1;fontFamily=Helvetica;fillColor=#dae8fc;strokeColor=#6c8ebf;fontColor=#000099;fontSize=11;" parent="1" vertex="1">
          <mxGeometry x="200" y="430" width="120" height="40" as="geometry" />
        </mxCell>
        <mxCell id="Mu6_Yp2KzFKUIn4I_CKU-24" style="rounded=0;orthogonalLoop=1;jettySize=auto;html=1;fontFamily=Helvetica;fontSize=11;fontColor=#000099;strokeColor=#B3B3B3;" parent="1" source="Mu6_Yp2KzFKUIn4I_CKU-3" target="Mu6_Yp2KzFKUIn4I_CKU-1" edge="1">
          <mxGeometry relative="1" as="geometry" />
        </mxCell>
        <mxCell id="Mu6_Yp2KzFKUIn4I_CKU-7" value="Azimuthal Projection" style="shape=ext;double=1;rounded=1;whiteSpace=wrap;html=1;fontFamily=Helvetica;fillColor=#dae8fc;strokeColor=#6c8ebf;fontColor=#000099;fontSize=11;" parent="1" vertex="1">
          <mxGeometry x="360" y="160" width="120" height="40" as="geometry" />
        </mxCell>
        <mxCell id="Mu6_Yp2KzFKUIn4I_CKU-8" value="Cylindrical Projection" style="shape=ext;double=1;rounded=1;whiteSpace=wrap;html=1;fontFamily=Helvetica;fillColor=#dae8fc;strokeColor=#6c8ebf;fontColor=#000099;fontSize=11;" parent="1" vertex="1">
          <mxGeometry x="360" y="430" width="120" height="40" as="geometry" />
        </mxCell>
        <mxCell id="Mu6_Yp2KzFKUIn4I_CKU-11" value="Pseudocylindrical Projection" style="shape=ext;double=1;rounded=1;whiteSpace=wrap;html=1;fontFamily=Helvetica;fillColor=#dae8fc;strokeColor=#6c8ebf;fontColor=#000099;fontSize=11;" parent="1" vertex="1">
          <mxGeometry x="360" y="670" width="120" height="40" as="geometry" />
        </mxCell>
        <mxCell id="Mu6_Yp2KzFKUIn4I_CKU-9" value="Interrupted Projection" style="shape=ext;double=1;rounded=1;whiteSpace=wrap;html=1;fontFamily=Helvetica;fillColor=#d5e8d4;strokeColor=#82b366;fontColor=#006600;fontSize=11;" parent="1" vertex="1">
          <mxGeometry x="680" y="760" width="120" height="40" as="geometry" />
        </mxCell>
        <mxCell id="Mu6_Yp2KzFKUIn4I_CKU-10" value="Basic Interrupted Projection" style="shape=ext;double=1;rounded=1;whiteSpace=wrap;html=1;fontFamily=Helvetica;fillColor=#dae8fc;strokeColor=#6c8ebf;fontColor=#000099;fontSize=11;" parent="1" vertex="1">
          <mxGeometry x="520" y="760" width="120" height="40" as="geometry" />
        </mxCell>
        <mxCell id="Mu6_Yp2KzFKUIn4I_CKU-12" value="Eckert 4 Projection" style="shape=ext;double=1;rounded=1;whiteSpace=wrap;html=1;fontFamily=Helvetica;fillColor=#d5e8d4;strokeColor=#82b366;fontColor=#006600;fontSize=11;" parent="1" vertex="1">
          <mxGeometry x="520" y="580" width="120" height="40" as="geometry" />
        </mxCell>
        <mxCell id="Mu6_Yp2KzFKUIn4I_CKU-13" value="Mollweide Projection" style="shape=ext;double=1;rounded=1;whiteSpace=wrap;html=1;fontFamily=Helvetica;fillColor=#d5e8d4;strokeColor=#82b366;fontColor=#006600;fontSize=11;" parent="1" vertex="1">
          <mxGeometry x="520" y="640" width="120" height="40" as="geometry" />
        </mxCell>
        <mxCell id="Mu6_Yp2KzFKUIn4I_CKU-14" value="Sinusoidal Projection" style="shape=ext;double=1;rounded=1;whiteSpace=wrap;html=1;fontFamily=Helvetica;fillColor=#d5e8d4;strokeColor=#82b366;fontColor=#006600;fontSize=11;" parent="1" vertex="1">
          <mxGeometry x="520" y="700" width="120" height="40" as="geometry" />
        </mxCell>
        <mxCell id="Mu6_Yp2KzFKUIn4I_CKU-15" value="Azimuthal Equidistant Projection" style="shape=ext;double=1;rounded=1;whiteSpace=wrap;html=1;fontFamily=Helvetica;fillColor=#d5e8d4;strokeColor=#82b366;fontColor=#006600;fontSize=11;" parent="1" vertex="1">
          <mxGeometry x="520" y="40" width="120" height="40" as="geometry" />
        </mxCell>
        <mxCell id="Mu6_Yp2KzFKUIn4I_CKU-16" value="Gnomonic Projection" style="shape=ext;double=1;rounded=1;whiteSpace=wrap;html=1;fontFamily=Helvetica;fillColor=#d5e8d4;strokeColor=#82b366;fontColor=#006600;fontSize=11;" parent="1" vertex="1">
          <mxGeometry x="520" y="100" width="120" height="40" as="geometry" />
        </mxCell>
        <mxCell id="Mu6_Yp2KzFKUIn4I_CKU-17" value="Lambert Azimuthal Projection" style="shape=ext;double=1;rounded=1;whiteSpace=wrap;html=1;fontFamily=Helvetica;fillColor=#d5e8d4;strokeColor=#82b366;fontColor=#006600;fontSize=11;" parent="1" vertex="1">
          <mxGeometry x="520" y="160" width="120" height="40" as="geometry" />
        </mxCell>
        <mxCell id="Mu6_Yp2KzFKUIn4I_CKU-18" value="Cylindrical Equidistant Projection" style="shape=ext;double=1;rounded=1;whiteSpace=wrap;html=1;fontFamily=Helvetica;fillColor=#d5e8d4;strokeColor=#82b366;fontColor=#006600;fontSize=11;" parent="1" vertex="1">
          <mxGeometry x="520" y="340" width="120" height="40" as="geometry" />
        </mxCell>
        <mxCell id="Mu6_Yp2KzFKUIn4I_CKU-19" value="Stereographic Projection" style="shape=ext;double=1;rounded=1;whiteSpace=wrap;html=1;fontFamily=Helvetica;fillColor=#d5e8d4;strokeColor=#82b366;fontColor=#006600;fontSize=11;" parent="1" vertex="1">
          <mxGeometry x="520" y="280" width="120" height="40" as="geometry" />
        </mxCell>
        <mxCell id="Mu6_Yp2KzFKUIn4I_CKU-20" value="Orthographic Projection" style="shape=ext;double=1;rounded=1;whiteSpace=wrap;html=1;fontFamily=Helvetica;fillColor=#d5e8d4;strokeColor=#82b366;fontColor=#006600;fontSize=11;" parent="1" vertex="1">
          <mxGeometry x="520" y="220" width="120" height="40" as="geometry" />
        </mxCell>
        <mxCell id="Mu6_Yp2KzFKUIn4I_CKU-21" value="Gall Peters Projection" style="shape=ext;double=1;rounded=1;whiteSpace=wrap;html=1;fontFamily=Helvetica;fillColor=#d5e8d4;strokeColor=#82b366;fontColor=#006600;fontSize=11;" parent="1" vertex="1">
          <mxGeometry x="520" y="400" width="120" height="40" as="geometry" />
        </mxCell>
        <mxCell id="Mu6_Yp2KzFKUIn4I_CKU-22" value="Lambert Cylindrical Projection" style="shape=ext;double=1;rounded=1;whiteSpace=wrap;html=1;fontFamily=Helvetica;fillColor=#d5e8d4;strokeColor=#82b366;fontColor=#006600;fontSize=11;" parent="1" vertex="1">
          <mxGeometry x="520" y="460" width="120" height="40" as="geometry" />
        </mxCell>
        <mxCell id="Mu6_Yp2KzFKUIn4I_CKU-23" value="Mercator Projection" style="shape=ext;double=1;rounded=1;whiteSpace=wrap;html=1;fontFamily=Helvetica;fillColor=#d5e8d4;strokeColor=#82b366;fontColor=#006600;fontSize=11;" parent="1" vertex="1">
          <mxGeometry x="520" y="520" width="120" height="40" as="geometry" />
        </mxCell>
        <mxCell id="Mu6_Yp2KzFKUIn4I_CKU-47" style="rounded=0;orthogonalLoop=1;jettySize=auto;html=1;fontFamily=Helvetica;fontSize=11;fontColor=#000099;strokeColor=#B3B3B3;" parent="1" source="Mu6_Yp2KzFKUIn4I_CKU-9" target="Mu6_Yp2KzFKUIn4I_CKU-10" edge="1">
          <mxGeometry relative="1" as="geometry" />
        </mxCell>
      </root>
    </mxGraphModel>
  </diagram>
</mxfile>
